<svg xmlns="http://www.w3.org/2000/svg" viewBox="0 0 22.51 28.5"><defs><style>.cls-1{stroke:#fff;stroke-miterlimit:10;stroke-width:0.5px;}</style></defs><g id="Layer_2" data-name="Layer 2"><g id="Layer_1-2" data-name="Layer 1"><path class="cls-1" d="M20.56,5A1,1,0,0,0,22,3.54l-3-3a1,1,0,0,0-1.41,0l-3,3A1,1,0,0,0,16,5l0,0,1.3-1.3V14.25a1,1,0,0,0,2,0V3.66Z"/><path class="cls-1" d="M8.25,18.43V5.27a1,1,0,0,0-2,0V18.43a3,3,0,1,0,2,0Z"/><path class="cls-1" d="M12.25,16.36V5.25a5,5,0,0,0-10,0V16.36A7,7,0,0,0,5.79,28.1a7.14,7.14,0,0,0,1.45.15,7,7,0,0,0,5-11.89Zm-1.84,8.76a5,5,0,0,1-6.5-7.58,1,1,0,0,0,.34-.75V5.25a3,3,0,1,1,6,0V16.79a1,1,0,0,0,.34.75,5,5,0,0,1,.4,7A6,6,0,0,1,10.41,25.12Z"/></g></g></svg>