<svg xmlns="http://www.w3.org/2000/svg" xmlns:xlink="http://www.w3.org/1999/xlink" viewBox="0 0 21.55 27.5"><defs><style>.cls-1{fill:url(#linear-gradient);}.cls-2{fill:url(#linear-gradient-2);}.cls-3{fill:url(#linear-gradient-3);}</style><linearGradient id="linear-gradient" x1="17.79" y1="14.5" x2="17.79" gradientUnits="userSpaceOnUse"><stop offset="0" stop-color="#4a4dff"/><stop offset="0.2" stop-color="#565aff"/><stop offset="1" stop-color="#8389ff"/></linearGradient><linearGradient id="linear-gradient-2" x1="6.75" y1="23.51" x2="6.75" y2="4.02" xlink:href="#linear-gradient"/><linearGradient id="linear-gradient-3" x1="6.74" y1="27.5" x2="6.74" y2="0" xlink:href="#linear-gradient"/></defs><g id="Layer_2" data-name="Layer 2"><g id="Layer_1-2" data-name="Layer 1"><path class="cls-1" d="M21.32,3.22l-3-3a.75.75,0,0,0-1.06,0l-3,3a.73.73,0,0,0-.23.54.74.74,0,0,0,.21.54.77.77,0,0,0,.54.24.84.84,0,0,0,.54-.22L16.62,3A.29.29,0,0,1,16.8,3l.09,0a.25.25,0,0,1,.16.23V13.75a.75.75,0,0,0,1.5,0V3.16a.25.25,0,0,1,.15-.23A.24.24,0,0,1,19,3l1.25,1.34a.78.78,0,0,0,1.1,0A.77.77,0,0,0,21.32,3.22Z"/><path class="cls-2" d="M9.34,19.84a2.73,2.73,0,0,0-1.68-1.67.25.25,0,0,1-.16-.24V4.77a.75.75,0,0,0-1.5,0V17.93a.26.26,0,0,1-.17.24,2.75,2.75,0,1,0,3.51,1.67Z"/><path class="cls-3" d="M13.48,20.74A6.7,6.7,0,0,0,11.56,16a.24.24,0,0,1-.06-.25v-11a4.75,4.75,0,0,0-9.5,0V15.86a.29.29,0,0,1-.07.18A6.74,6.74,0,0,0,2,25.58a6.79,6.79,0,0,0,3.31,1.78,7.3,7.3,0,0,0,1.4.14,6.74,6.74,0,0,0,6.74-6.76Zm-3.41,4.07h0a5.25,5.25,0,0,1-6.83-8,.77.77,0,0,0,.27-.57V4.75a3.25,3.25,0,0,1,6.5,0V16.29a.75.75,0,0,0,.25.56,5.28,5.28,0,0,1,.42,7.36A6.79,6.79,0,0,1,10.07,24.81Z"/></g></g></svg>