<svg xmlns="http://www.w3.org/2000/svg" xmlns:xlink="http://www.w3.org/1999/xlink" viewBox="0 0 20.33 24.44"><defs><style>.cls-1{fill:url(#linear-gradient);}</style><linearGradient id="linear-gradient" x1="10.17" y1="24.44" x2="10.17" gradientUnits="userSpaceOnUse"><stop offset="0" stop-color="#4a4dff"/><stop offset="0.2" stop-color="#565aff"/><stop offset="1" stop-color="#8389ff"/></linearGradient></defs><g id="Layer_2" data-name="Layer 2"><g id="Layer_1-2" data-name="Layer 1"><path class="cls-1" d="M10.15,9.87A3.91,3.91,0,0,0,14.05,6c0-2.06-3.19-5.57-3.32-5.71A.74.74,0,0,0,10.19,0h0a.74.74,0,0,0-.53.21C7.47,2.66,6.25,4.74,6.25,6A3.91,3.91,0,0,0,10.15,9.87ZM10,2.21l.2-.26.2.26C10.71,2.66,12.49,5,12.49,6A2.34,2.34,0,0,1,7.81,6C7.81,5.17,8.91,3.5,10,2.21ZM20.33,15.33c0-2-3-5.33-3.34-5.72a.82.82,0,0,0-.55-.24h0a.78.78,0,0,0-.54.21c-.17.18-3.36,3.69-3.36,5.75a3.91,3.91,0,0,0,3.91,3.9h0A3.91,3.91,0,0,0,20.33,15.33Zm-3.92,2.34h0a2.34,2.34,0,0,1-2.34-2.34c0-.79,1.11-2.46,2.14-3.75l.21-.26.2.26c.36.45,2.14,2.75,2.14,3.75A2.34,2.34,0,0,1,16.41,17.67Zm-10.87-6A.72.72,0,0,0,5,11.44a.77.77,0,0,0-.57.18l-.12.1C3.3,13,0,17.17,0,19.5a4.95,4.95,0,0,0,9.89,0C9.89,17.16,6.56,12.94,5.54,11.71Zm-.6,11.17A3.39,3.39,0,0,1,1.56,19.5c0-1.54,2.65-5.08,3.18-5.77l.2-.27.21.27c.53.69,3.18,4.21,3.18,5.77A3.39,3.39,0,0,1,4.94,22.88Z"/></g></g></svg>