<svg xmlns="http://www.w3.org/2000/svg" viewBox="0 0 20.5 24.48"><defs><style>.cls-1{stroke:#fff;stroke-miterlimit:10;stroke-width:0.5px;}</style></defs><g id="Layer_2" data-name="Layer 2"><g id="Layer_1-2" data-name="Layer 1"><path class="cls-1" d="M14.25,6.23c0-1.94-2.71-5.06-3.26-5.66a1,1,0,0,0-1.46,0l0,0C9,1.17,6.25,4.29,6.25,6.23a4,4,0,0,0,8,0Zm-4,2a2,2,0,0,1-2-2c0-.63.94-2.12,2-3.45,1.06,1.34,2,2.84,2,3.45A2,2,0,0,1,10.25,8.23Z"/><path class="cls-1" d="M17,9.57a1,1,0,0,0-1.46,0l0,0c-.55.6-3.26,3.72-3.26,5.66a4,4,0,0,0,8,0C20.25,13.29,17.54,10.17,17,9.57Zm-.74,7.66a2,2,0,0,1-2-2c0-.63.94-2.12,2-3.45,1.06,1.34,2,2.84,2,3.45A2,2,0,0,1,16.25,17.23Z"/><path class="cls-1" d="M4.48,11.59c-.7.85-4.23,5.2-4.23,7.64a5,5,0,0,0,10,0c0-2.44-3.53-6.79-4.23-7.64a1,1,0,0,0-1.46-.07Zm.77,10.64a3,3,0,0,1-3-3c0-1.07,1.57-3.52,3-5.39,1.43,1.86,3,4.32,3,5.39A3,3,0,0,1,5.25,22.23Z"/></g></g></svg>