<svg xmlns="http://www.w3.org/2000/svg" xmlns:xlink="http://www.w3.org/1999/xlink" viewBox="0 0 21.37 27.27"><defs><style>.cls-1{fill:url(#linear-gradient);}.cls-2{fill:url(#linear-gradient-2);}.cls-3{fill:url(#linear-gradient-3);}</style><linearGradient id="linear-gradient" x1="17.61" y1="14.44" x2="17.61" gradientUnits="userSpaceOnUse"><stop offset="0" stop-color="#4a4dff"/><stop offset="0.2" stop-color="#565aff"/><stop offset="1" stop-color="#8389ff"/></linearGradient><linearGradient id="linear-gradient-2" x1="6.69" y1="23.31" x2="6.69" y2="10.91" xlink:href="#linear-gradient"/><linearGradient id="linear-gradient-3" x1="6.68" y1="27.27" x2="6.68" xlink:href="#linear-gradient"/></defs><g id="Layer_2" data-name="Layer 2"><g id="Layer_1-2" data-name="Layer 1"><path class="cls-1" d="M21.16,10.17a.74.74,0,0,0-.52-.22h0a.78.78,0,0,0-.52.21l-1.28,1.29a.25.25,0,0,1-.27.05.24.24,0,0,1-.15-.23V.74A.75.75,0,0,0,17.65,0a.74.74,0,0,0-.74.74v10.5a.25.25,0,0,1-.42.18l-1.3-1.29h0a.78.78,0,0,0-.55-.23h0a.78.78,0,0,0-.55,1.33l3,3a.75.75,0,0,0,.53.24.72.72,0,0,0,.53-.2l3-3A.76.76,0,0,0,21.16,10.17Z"/><path class="cls-2" d="M9.26,19.67A2.73,2.73,0,0,0,7.6,18a.25.25,0,0,1-.17-.23V11.65a.74.74,0,0,0-.74-.74.75.75,0,0,0-.75.74v6.13a.24.24,0,0,1-.16.23,2.73,2.73,0,1,0,3.48,1.66Z"/><path class="cls-3" d="M13.36,20.57a6.67,6.67,0,0,0-1.9-4.67.22.22,0,0,1-.06-.24V4.71A4.71,4.71,0,0,0,2,4.71v11a.28.28,0,0,1-.07.17A6.7,6.7,0,0,0,5.29,27.13a7.2,7.2,0,0,0,1.39.14,6.69,6.69,0,0,0,6.68-6.7ZM10,24.6h0a5.21,5.21,0,0,1-3.16,1.08,5.34,5.34,0,0,1-.69-.05A5.2,5.2,0,0,1,3.2,16.72a.76.76,0,0,0,.26-.57V4.71a3.23,3.23,0,0,1,6.45,0V16.15a.73.73,0,0,0,.25.56A5.23,5.23,0,0,1,10.58,24,5.66,5.66,0,0,1,10,24.6Z"/></g></g></svg>