<svg xmlns="http://www.w3.org/2000/svg" viewBox="0 0 26.5 28.46"><defs><style>.cls-1{stroke:#fff;stroke-miterlimit:10;stroke-width:0.5px;}</style></defs><g id="Layer_2" data-name="Layer 2"><g id="Layer_1-2" data-name="Layer 1"><path class="cls-1" d="M23.37,9.06A3.28,3.28,0,0,0,23,7.52L21.14,3.76a1,1,0,0,0-.89-.55h0a1,1,0,0,0-.89.55l-.8,1.6a12.91,12.91,0,0,0-4.31-1.09V2.21a1,1,0,0,0-2,0V4.26a12.83,12.83,0,0,0-3.9.92L6.14.76A1,1,0,0,0,4.72.4a1,1,0,0,0-.36.36L1.94,5.6a4,4,0,0,0,.53,4.33A12.93,12.93,0,0,0,.25,17.21a1,1,0,0,0,1,1h.13a1,1,0,0,0,1-.76,3,3,0,0,1,5.8,0,1,1,0,0,0,1,.76h.26a1,1,0,0,0,1-.76,3,3,0,0,1,1.9-2.07v9.83a1,1,0,0,1-2,0,1,1,0,0,0-2,0,3,3,0,0,0,6,0V15.38a3,3,0,0,1,1.9,2.07,1,1,0,0,0,1,.76h.26a1,1,0,0,0,1-.76,3,3,0,0,1,5.8,0,1,1,0,0,0,1,.76h.13a1,1,0,0,0,1-1A13,13,0,0,0,23.37,9.06ZM20.25,6.45l1,2a1.23,1.23,0,0,1-.48,1.67,1,1,0,0,1-.29.11h-.4a1.23,1.23,0,0,1-.91-1.48,1.08,1.08,0,0,1,.11-.3C20.46,6,19.06,8.83,20.25,6.45Zm-16.53,0L5.25,3.44,6.78,6.49A1.86,1.86,0,0,1,6,9a1.91,1.91,0,0,1-.5.19,2,2,0,0,1-.55,0A1.86,1.86,0,0,1,3.54,7,2.22,2.22,0,0,1,3.72,6.49Zm17.53,6.72a5,5,0,0,0-4,2,5,5,0,0,0-7-1,5.16,5.16,0,0,0-1,1,5,5,0,0,0-6.49-1.33A10.9,10.9,0,0,1,4.13,11,3.75,3.75,0,0,0,8.82,8.58,3.87,3.87,0,0,0,9,7.07a11.13,11.13,0,0,1,8.7.06c-2,4,2.51,6.59,4.83,4.12a10.93,10.93,0,0,1,1.23,2.61A4.92,4.92,0,0,0,21.25,13.21Z"/></g></g></svg>