<svg xmlns="http://www.w3.org/2000/svg" viewBox="0 0 28 23"><defs><style>.cls-1{fill:#fff;}</style></defs><g id="Layer_2" data-name="Layer 2"><g id="Layer_1-2" data-name="Layer 1"><path class="cls-1" d="M14.6,8A6,6,0,0,0,9,14a3.81,3.81,0,0,0-1.53.31,5,5,0,0,1,1-9.09A5.3,5.3,0,0,1,10,5,5,5,0,0,1,14.6,8Z"/><path d="M2,9H1a1,1,0,0,0,0,2H2A1,1,0,0,0,2,9Z"/><path d="M16.36,5.05l.71-.71a1,1,0,0,0,0-1.41,1,1,0,0,0-1.42,0v0L15,3.64a1,1,0,0,0,1.41,1.41Z"/><path d="M10,3a1,1,0,0,0,1-1V1A1,1,0,0,0,9,1V2A1,1,0,0,0,10,3Z"/><path d="M5.05,5.05a1,1,0,0,0,0-1.41l-.71-.71A1,1,0,0,0,2.93,4.34l.71.71A1,1,0,0,0,5.05,5.05Z"/><path d="M22,11a4.63,4.63,0,0,0-.65,0A7,7,0,0,0,15.2,7,6,6,0,0,0,4.79,13a5.81,5.81,0,0,0,1,1.25A5,5,0,0,0,9,23H22a6,6,0,0,0,0-12ZM10,6a4,4,0,0,1,3,1.31h0a7.05,7.05,0,0,0-4.89,5.78H8a3.77,3.77,0,0,0-.43.1A4,4,0,0,1,6,10,4,4,0,0,1,10,6ZM22,21H9a3,3,0,0,1,0-6,3,3,0,0,1,1.82.62A1,1,0,1,0,12,14h0a5,5,0,0,0-1.95-.91A5.09,5.09,0,0,1,15,9a5,5,0,0,1,4.77,3.47A5.3,5.3,0,0,1,20,14a1,1,0,0,0,2,0,6.5,6.5,0,0,0-.08-1H22a4,4,0,0,1,0,8Z"/><path class="cls-1" d="M22,21H9a3,3,0,0,1,0-6,3,3,0,0,1,1.82.62A1,1,0,1,0,12,14h0a5,5,0,0,0-1.95-.91A5.09,5.09,0,0,1,15,9a5,5,0,0,1,4.77,3.47A5.3,5.3,0,0,1,20,14a1,1,0,0,0,2,0,6.5,6.5,0,0,0-.08-1H22a4,4,0,0,1,0,8Z"/></g></g></svg>