<svg xmlns="http://www.w3.org/2000/svg" xmlns:xlink="http://www.w3.org/1999/xlink" viewBox="0 0 29.89 16.2"><defs><style>.cls-1{fill:url(#linear-gradient);}</style><linearGradient id="linear-gradient" x1="14.94" y1="16.2" x2="14.94" gradientUnits="userSpaceOnUse"><stop offset="0" stop-color="#4a4dff"/><stop offset="0.2" stop-color="#565aff"/><stop offset="1" stop-color="#8389ff"/></linearGradient></defs><g id="Layer_2" data-name="Layer 2"><g id="Layer_1-2" data-name="Layer 1"><path class="cls-1" d="M14.1,3.3V.9a.9.9,0,1,1,1.8,0V3.3a.9.9,0,1,1-1.8,0Zm15.79,12a.91.91,0,0,1-.9.9H.9a.9.9,0,1,1,0-1.8h6l0-.26a8.1,8.1,0,0,1,6.92-6.92,8.1,8.1,0,0,1,9.12,6.92l0,.26h6A.9.9,0,0,1,29.89,15.3Zm-8.64-.9L21.17,14a6.3,6.3,0,0,0-9.62-4,6.23,6.23,0,0,0-2.71,4l-.08.36ZM6.41,4,8,5.79a.89.89,0,0,0,1.26.11h0a.91.91,0,0,0,.1-1.26L7.79,2.8a.91.91,0,0,0-.69-.31A.91.91,0,0,0,6.41,4ZM22,5.8h0L23.48,4a.9.9,0,0,0-.11-1.27.85.85,0,0,0-.58-.21.89.89,0,0,0-.69.31L20.55,4.65A.91.91,0,0,0,22,5.8ZM1.43,9.68l.2.06,2.25.81a.89.89,0,0,0,.68-.05A.92.92,0,0,0,5,10a.9.9,0,0,0-.52-1.12L2.24,8.08a.89.89,0,0,0-.7,0,.91.91,0,0,0-.48.5A.89.89,0,0,0,1.43,9.68Zm24-.78a.88.88,0,0,0-.53.45.9.9,0,0,0,.4,1.21.87.87,0,0,0,.59.07l.16-.08,2.25-.81A.92.92,0,0,0,29,8.68a.9.9,0,0,0-.88-.74H28a1,1,0,0,0-.28.11Z"/></g></g></svg>