<svg xmlns="http://www.w3.org/2000/svg" viewBox="0 0 25.91 14.5"><defs><style>.cls-1{fill:none;}.cls-2{stroke:#fff;stroke-miterlimit:10;stroke-width:0.5px;}</style></defs><g id="Layer_2" data-name="Layer 2"><g id="Layer_1-2" data-name="Layer 1"><path class="cls-1" d="M7,13.25a6,6,0,0,1,12,0Z"/><path class="cls-2" d="M13,4.25a1,1,0,0,0,1-1v-2a1,1,0,0,0-2,0v2A1,1,0,0,0,13,4.25Z"/><path class="cls-2" d="M24.66,12.25H19.87A7,7,0,0,0,6,12.25H1.25a1,1,0,0,0,0,2H24.66a1,1,0,0,0,0-2Zm-8.55,0h-8a5,5,0,0,1,9.79,0Z"/><path class="cls-2" d="M6.94,5.49a1,1,0,0,0,1.41.12,1,1,0,0,0,.12-1.4L7.18,2.67A1,1,0,0,0,5.65,4Z"/><path class="cls-2" d="M19,5.49,20.26,4a1,1,0,0,0-1.53-1.29L17.44,4.21A1,1,0,0,0,19,5.49Z"/><path class="cls-2" d="M1.77,8.85l1.88.68a1,1,0,0,0,.68-1.88L2.45,7a1,1,0,1,0-.68,1.88Z"/><path class="cls-2" d="M22.26,9.53l1.88-.68A1,1,0,1,0,23.46,7l-1.88.68a1,1,0,1,0,.68,1.88Z"/><path class="cls-1" d="M7.06,13.2a5.9,5.9,0,1,1,11.79,0Z"/></g></g></svg>