<svg xmlns="http://www.w3.org/2000/svg" xmlns:xlink="http://www.w3.org/1999/xlink" viewBox="0 0 29.89 16.2"><defs><style>.cls-1{fill:url(#linear-gradient);}</style><linearGradient id="linear-gradient" x1="106.4" y1="-69.71" x2="106.4" y2="-85.9" gradientTransform="translate(-91.46 85.9)" gradientUnits="userSpaceOnUse"><stop offset="0" stop-color="#4a4dff"/><stop offset="0.2" stop-color="#565aff"/><stop offset="1" stop-color="#8389ff"/></linearGradient></defs><g id="Layer_2" data-name="Layer 2"><g id="Layer_1-2" data-name="Layer 1"><path class="cls-1" d="M14.1,3.3V.9a.9.9,0,1,1,1.8,0V3.3a.9.9,0,1,1-1.8,0ZM29,14.4H23l0-.26a8.1,8.1,0,0,0-9.12-6.92A8.1,8.1,0,0,0,6.9,14.14l0,.26H.9a.9.9,0,1,0,0,1.8H29a.9.9,0,1,0,0-1.8ZM8,5.79a.89.89,0,0,0,1.26.11h0a.91.91,0,0,0,.1-1.26L7.79,2.8a.91.91,0,0,0-.69-.31A.91.91,0,0,0,6.41,4Zm14,0h0L23.48,4a.9.9,0,0,0-.11-1.27.85.85,0,0,0-.58-.21.87.87,0,0,0-.69.32l-1.55,1.8A.91.91,0,0,0,22,5.8ZM1.43,9.68l.2.06,2.25.81a.89.89,0,0,0,.68-.05A.92.92,0,0,0,5,10a.9.9,0,0,0-.52-1.12L2.24,8.08a.89.89,0,0,0-.7,0,.91.91,0,0,0-.48.5A.89.89,0,0,0,1.43,9.68Zm23.83.88a.87.87,0,0,0,.59.07l.16-.08,2.25-.81A.92.92,0,0,0,29,8.68a.9.9,0,0,0-.88-.74H28a1,1,0,0,0-.28.11l-2.31.84a.88.88,0,0,0-.53.45.9.9,0,0,0,.4,1.21Z"/></g></g></svg>