<svg xmlns="http://www.w3.org/2000/svg" xmlns:xlink="http://www.w3.org/1999/xlink" viewBox="0 0 27.5 19.5"><defs><style>.cls-1{fill:url(#linear-gradient);}</style><linearGradient id="linear-gradient" y1="9.75" x2="27.5" y2="9.75" gradientUnits="userSpaceOnUse"><stop offset="0" stop-color="#4a4dff"/><stop offset="0.2" stop-color="#565aff"/><stop offset="1" stop-color="#8389ff"/></linearGradient></defs><g id="Layer_2" data-name="Layer 2"><g id="Layer_1-2" data-name="Layer 1"><path class="cls-1" d="M5,6.75A.76.76,0,0,1,5.75,6h12A2.25,2.25,0,1,0,15.5,3.75a.75.75,0,0,1-1.5,0A3.75,3.75,0,1,1,17.75,7.5h-12A.76.76,0,0,1,5,6.75ZM14.75,12h-9a.75.75,0,0,0,0,1.5h9a2.25,2.25,0,1,1-2.25,2.25.75.75,0,0,0-1.5,0A3.75,3.75,0,1,0,14.75,12Zm9-3H.75a.75.75,0,0,0,0,1.5h23a2.25,2.25,0,1,1-2.25,2.25.75.75,0,0,0-1.5,0A3.75,3.75,0,1,0,23.75,9ZM.75,7.5h2a.75.75,0,0,0,0-1.5h-2a.75.75,0,0,0,0,1.5Zm2,4.5h-2a.75.75,0,0,0,0,1.5h2a.75.75,0,0,0,0-1.5Z"/></g></g></svg>