<svg xmlns="http://www.w3.org/2000/svg" viewBox="0 0 28.5 20.5"><defs><style>.cls-1{stroke:#fff;stroke-miterlimit:10;stroke-width:0.5px;}</style></defs><g id="Layer_2" data-name="Layer 2"><g id="Layer_1-2" data-name="Layer 1"><g id="direction-2"><path class="cls-1" d="M6.25,8.25h12a4,4,0,1,0-4-4,1,1,0,0,0,2,0,2,2,0,1,1,2,2h-12a1,1,0,0,0,0,2Z"/><path class="cls-1" d="M15.25,12.25h-9a1,1,0,0,0,0,2h9a2,2,0,1,1-2,2,1,1,0,0,0-2,0,4,4,0,1,0,4-4Z"/><path class="cls-1" d="M24.25,9.25h-23a1,1,0,0,0,0,2h23a2,2,0,1,1-2,2,1,1,0,0,0-2,0,4,4,0,1,0,4-4Z"/><path class="cls-1" d="M1.25,8.25h2a1,1,0,0,0,0-2h-2a1,1,0,0,0,0,2Z"/><path class="cls-1" d="M3.25,12.25h-2a1,1,0,0,0,0,2h2a1,1,0,0,0,0-2Z"/></g></g></g></svg>