<svg id="Layer_1" data-name="Layer 1" xmlns="http://www.w3.org/2000/svg" xmlns:xlink="http://www.w3.org/1999/xlink" viewBox="0 0 100 100"><defs><style>.cls-1{fill:url(#linear-gradient);}.cls-2{fill:url(#linear-gradient-2);}.cls-3{fill:url(#linear-gradient-3);}</style><linearGradient id="linear-gradient" x1="32.47" y1="71.65" x2="59.68" y2="44.44" gradientUnits="userSpaceOnUse"><stop offset="0" stop-color="#4a4dff"/><stop offset="0.2" stop-color="#565aff"/><stop offset="1" stop-color="#8389ff"/></linearGradient><linearGradient id="linear-gradient-2" x1="62.94" y1="43.33" x2="69.31" y2="36.96" gradientUnits="userSpaceOnUse"><stop offset="0" stop-color="#f5bb00"/><stop offset="0.66" stop-color="#fcd865"/><stop offset="1" stop-color="#ffe594"/></linearGradient><linearGradient id="linear-gradient-3" x1="55.51" y1="26.36" x2="59.24" y2="22.64" xlink:href="#linear-gradient-2"/></defs><g id="Clear_Night" data-name="Clear Night"><path class="cls-1" d="M50.48,79.13a25.47,25.47,0,0,1-7-49.95,1.33,1.33,0,0,1,1.65,1.65,23.11,23.11,0,0,0-.9,6.3A22.77,22.77,0,0,0,73.3,59,1.34,1.34,0,0,1,75,60.68,25.58,25.58,0,0,1,50.48,79.13Z"/><path class="cls-2" d="M67,45c-.48,1.74-1.25,1.74-1.73,0a6.4,6.4,0,0,0-4-4c-1.75-.47-1.75-1.25,0-1.72a6.38,6.38,0,0,0,4-4c.48-1.74,1.25-1.74,1.73,0a6.38,6.38,0,0,0,4,4c1.75.47,1.75,1.25,0,1.72A6.4,6.4,0,0,0,67,45Z"/><path class="cls-3" d="M57.88,27.36c-.28,1-.73,1-1,0A3.73,3.73,0,0,0,54.51,25c-1-.28-1-.73,0-1a3.74,3.74,0,0,0,2.36-2.36c.28-1,.73-1,1,0A3.74,3.74,0,0,0,60.24,24c1,.28,1,.73,0,1A3.73,3.73,0,0,0,57.88,27.36Z"/></g></svg>