<svg id="Layer_1" data-name="Layer 1" xmlns="http://www.w3.org/2000/svg" xmlns:xlink="http://www.w3.org/1999/xlink" viewBox="0 0 100 100"><defs><style>.cls-1{fill:url(#linear-gradient);}.cls-2{fill:#ebe7fb;}.cls-3{fill:url(#linear-gradient-2);}</style><linearGradient id="linear-gradient" x1="58.45" y1="47.21" x2="76.78" y2="28.88" gradientUnits="userSpaceOnUse"><stop offset="0" stop-color="#f5bb00"/><stop offset="0.66" stop-color="#fcd865"/><stop offset="1" stop-color="#ffe594"/></linearGradient><linearGradient id="linear-gradient-2" x1="45.16" y1="77.47" x2="65.49" y2="57.15" gradientUnits="userSpaceOnUse"><stop offset="0" stop-color="#8389ff"/><stop offset="0.82" stop-color="#b2b8ff"/><stop offset="0.97" stop-color="#bbc1ff"/><stop offset="1" stop-color="#bdc3ff"/></linearGradient></defs><circle class="cls-1" cx="67.62" cy="38.05" r="12.96"/><path class="cls-2" d="M65.42,67.92a10.67,10.67,0,1,0,0-21.33h-.11a17,17,0,0,0-32.44-5.06h-.25a13.2,13.2,0,1,0,0,26.4"/><path class="cls-3" d="M66.64,74.92a6.7,6.7,0,1,0,0-13.4h-.07A10.69,10.69,0,0,0,46.2,58.34H46a8.29,8.29,0,1,0,0,16.58"/></svg>