<svg id="Layer_1" data-name="Layer 1" xmlns="http://www.w3.org/2000/svg" xmlns:xlink="http://www.w3.org/1999/xlink" viewBox="0 0 100 100"><defs><style>.cls-1{fill:url(#linear-gradient);}.cls-2{fill:url(#linear-gradient-2);}.cls-3{fill:#ebe7fb;}</style><linearGradient id="linear-gradient" x1="59.12" y1="48.7" x2="74.72" y2="33.1" gradientUnits="userSpaceOnUse"><stop offset="0" stop-color="#4a4dff"/><stop offset="0.2" stop-color="#565aff"/><stop offset="1" stop-color="#8389ff"/></linearGradient><linearGradient id="linear-gradient-2" x1="16.5" y1="50.47" x2="73.17" y2="50.47" gradientUnits="userSpaceOnUse"><stop offset="0" stop-color="#8389ff"/><stop offset="0.82" stop-color="#b2b8ff"/><stop offset="0.97" stop-color="#bbc1ff"/><stop offset="1" stop-color="#bdc3ff"/></linearGradient></defs><path class="cls-1" d="M69.44,53a14.6,14.6,0,0,1-4-28.64.77.77,0,0,1,.75.2.75.75,0,0,1,.19.75A13,13,0,0,0,82.52,41.46a.81.81,0,0,1,.76.19.79.79,0,0,1,.19.76A14.67,14.67,0,0,1,69.44,53Z"/><path class="cls-2" d="M62.5,68.68a10.66,10.66,0,1,0,0-21.32h-.11A17,17,0,0,0,30,42.29H29.7a13.2,13.2,0,1,0,0,26.39"/><path class="cls-3" d="M63.72,75.69a6.7,6.7,0,1,0,0-13.4h-.07a10.69,10.69,0,0,0-20.37-3.19h-.16a8.29,8.29,0,0,0,0,16.58"/></svg>