<svg id="Layer_1" data-name="Layer 1" xmlns="http://www.w3.org/2000/svg" xmlns:xlink="http://www.w3.org/1999/xlink" viewBox="0 0 100 100"><defs><style>.cls-1{fill:url(#linear-gradient);}.cls-2{fill:url(#linear-gradient-2);}.cls-3{fill:url(#linear-gradient-3);}.cls-4{fill:url(#linear-gradient-4);}.cls-5{fill:url(#linear-gradient-5);}.cls-6{fill:url(#linear-gradient-6);}.cls-7{fill:#ebe7fb;}.cls-8{fill:url(#linear-gradient-7);}</style><linearGradient id="linear-gradient" x1="31.56" y1="64.82" x2="37.94" y2="64.82" gradientUnits="userSpaceOnUse"><stop offset="0" stop-color="#4a4dff"/><stop offset="0.2" stop-color="#565aff"/><stop offset="1" stop-color="#8389ff"/></linearGradient><linearGradient id="linear-gradient-2" x1="33.68" y1="72.84" x2="42.19" y2="72.84" xlink:href="#linear-gradient"/><linearGradient id="linear-gradient-3" x1="52.49" y1="71.63" x2="58.56" y2="71.63" xlink:href="#linear-gradient"/><linearGradient id="linear-gradient-4" x1="43.25" y1="72.69" x2="50.54" y2="72.69" xlink:href="#linear-gradient"/><linearGradient id="linear-gradient-5" x1="22.31" y1="63.27" x2="30.23" y2="63.27" xlink:href="#linear-gradient"/><linearGradient id="linear-gradient-6" x1="57.86" y1="70.31" x2="65.77" y2="70.31" xlink:href="#linear-gradient"/><linearGradient id="linear-gradient-7" x1="47.41" y1="66.68" x2="67.74" y2="46.36" gradientUnits="userSpaceOnUse"><stop offset="0" stop-color="#8389ff"/><stop offset="0.82" stop-color="#b2b8ff"/><stop offset="0.97" stop-color="#bbc1ff"/><stop offset="1" stop-color="#bdc3ff"/></linearGradient></defs><path class="cls-1" d="M32.77,69.45a1.2,1.2,0,0,1-.6-.16,1.22,1.22,0,0,1-.45-1.66l4-6.84A1.21,1.21,0,1,1,37.77,62l-3.94,6.83A1.23,1.23,0,0,1,32.77,69.45Z"/><path class="cls-2" d="M34.9,79.31a1.21,1.21,0,0,1-1-1.82L39.92,67A1.22,1.22,0,0,1,42,68.19L36,78.71A1.2,1.2,0,0,1,34.9,79.31Z"/><path class="cls-3" d="M53.7,76a1.22,1.22,0,0,1-1.05-1.83l3.64-6.31a1.22,1.22,0,0,1,2.11,1.22L54.75,75.4A1.2,1.2,0,0,1,53.7,76Z"/><path class="cls-4" d="M44.46,78.11a1.2,1.2,0,0,1-.6-.16,1.22,1.22,0,0,1-.45-1.66l4.86-8.42a1.22,1.22,0,0,1,2.11,1.22L45.52,77.5A1.23,1.23,0,0,1,44.46,78.11Z"/><path class="cls-5" d="M29.62,60.39a1.21,1.21,0,0,0-1.66.44l-1.39,2.41h0l-.73,1.25a1.22,1.22,0,0,0,.45,1.66,1.2,1.2,0,0,0,.6.16,1.22,1.22,0,0,0,1.06-.6l1.87-3.25h0l.23-.41A1.21,1.21,0,0,0,29.62,60.39Z"/><path class="cls-6" d="M65.17,67.43a1.21,1.21,0,0,0-1.66.44l-1.39,2.41h0l-.72,1.25a1.21,1.21,0,0,0,.44,1.66,1.24,1.24,0,0,0,.61.16,1.2,1.2,0,0,0,1-.6l1.88-3.25h0l.24-.41A1.21,1.21,0,0,0,65.17,67.43Z"/><path class="cls-7" d="M67.67,57.13a10.67,10.67,0,0,0,0-21.33h-.11a17,17,0,0,0-32.44-5.06h-.26a13.2,13.2,0,0,0,0,26.4"/><path class="cls-8" d="M68.89,64.13a6.7,6.7,0,0,0,0-13.4h-.07a10.69,10.69,0,0,0-20.37-3.19h-.16a8.29,8.29,0,1,0,0,16.58"/></svg>