<svg id="Layer_1" data-name="Layer 1" xmlns="http://www.w3.org/2000/svg" xmlns:xlink="http://www.w3.org/1999/xlink" viewBox="0 0 100 100"><defs><style>.cls-1{fill:url(#linear-gradient);}.cls-2{fill:url(#linear-gradient-2);}.cls-3{fill:url(#linear-gradient-3);}.cls-4{fill:url(#linear-gradient-4);}.cls-5{fill:url(#linear-gradient-5);}.cls-6{fill:url(#linear-gradient-6);}.cls-7{fill:url(#linear-gradient-7);}.cls-8{fill:#ebe7fb;}</style><linearGradient id="linear-gradient" x1="31.2" y1="64.43" x2="37.58" y2="64.43" gradientUnits="userSpaceOnUse"><stop offset="0" stop-color="#4a4dff"/><stop offset="0.2" stop-color="#565aff"/><stop offset="1" stop-color="#8389ff"/></linearGradient><linearGradient id="linear-gradient-2" x1="33.33" y1="72.45" x2="41.83" y2="72.45" xlink:href="#linear-gradient"/><linearGradient id="linear-gradient-3" x1="52.13" y1="71.25" x2="58.2" y2="71.25" xlink:href="#linear-gradient"/><linearGradient id="linear-gradient-4" x1="42.9" y1="72.3" x2="50.18" y2="72.3" xlink:href="#linear-gradient"/><linearGradient id="linear-gradient-5" x1="21.96" y1="62.88" x2="29.87" y2="62.88" xlink:href="#linear-gradient"/><linearGradient id="linear-gradient-6" x1="57.5" y1="69.92" x2="65.42" y2="69.92" xlink:href="#linear-gradient"/><linearGradient id="linear-gradient-7" x1="21.67" y1="39.29" x2="78.33" y2="39.29" gradientUnits="userSpaceOnUse"><stop offset="0" stop-color="#8389ff"/><stop offset="0.82" stop-color="#b2b8ff"/><stop offset="0.97" stop-color="#bbc1ff"/><stop offset="1" stop-color="#bdc3ff"/></linearGradient></defs><path class="cls-1" d="M32.42,69.06a1.21,1.21,0,0,1-1.05-1.82l3.94-6.83a1.22,1.22,0,0,1,2.11,1.21l-4,6.84A1.2,1.2,0,0,1,32.42,69.06Z"/><path class="cls-2" d="M34.54,78.93a1.2,1.2,0,0,1-.6-.16,1.22,1.22,0,0,1-.45-1.66l6.08-10.52a1.21,1.21,0,1,1,2.1,1.21L35.6,78.32A1.23,1.23,0,0,1,34.54,78.93Z"/><path class="cls-3" d="M53.34,75.62a1.2,1.2,0,0,1-.6-.16,1.22,1.22,0,0,1-.45-1.66l3.65-6.31A1.21,1.21,0,1,1,58,68.7L54.4,75A1.23,1.23,0,0,1,53.34,75.62Z"/><path class="cls-4" d="M44.11,77.73a1.22,1.22,0,0,1-1-1.83l4.86-8.41A1.21,1.21,0,1,1,50,68.7l-4.86,8.42A1.2,1.2,0,0,1,44.11,77.73Z"/><path class="cls-5" d="M29.26,60a1.21,1.21,0,0,0-1.65.45l-1.39,2.4h0l-.72,1.26a1.21,1.21,0,1,0,2.1,1.21l1.88-3.25h0l.24-.41A1.22,1.22,0,0,0,29.26,60Z"/><path class="cls-6" d="M64.81,67a1.22,1.22,0,0,0-1.66.45l-1.39,2.4h0L61,71.15a1.22,1.22,0,0,0,.45,1.66,1.2,1.2,0,0,0,.6.16,1.23,1.23,0,0,0,1.06-.61L65,69.11h0l.23-.41A1.21,1.21,0,0,0,64.81,67Z"/><path class="cls-7" d="M67.67,57.51a10.67,10.67,0,0,0,0-21.33h-.11a17,17,0,0,0-32.44-5.07h-.26a13.2,13.2,0,0,0,0,26.4"/><path class="cls-8" d="M68.89,64.51a6.7,6.7,0,0,0,0-13.39h-.07a10.69,10.69,0,0,0-20.37-3.18h-.16a8.29,8.29,0,1,0,0,16.57"/></svg>