<svg id="Layer_1" data-name="Layer 1" xmlns="http://www.w3.org/2000/svg" xmlns:xlink="http://www.w3.org/1999/xlink" viewBox="0 0 100 100"><defs><style>.cls-1{fill:url(#linear-gradient);}.cls-2{fill:url(#linear-gradient-2);}.cls-3{fill:url(#linear-gradient-3);}.cls-4{fill:url(#linear-gradient-4);}.cls-5{fill:url(#linear-gradient-5);}.cls-6{fill:url(#linear-gradient-6);}.cls-7{fill:url(#linear-gradient-7);}.cls-8{fill:#ebe7fb;}.cls-9{fill:url(#linear-gradient-8);}</style><linearGradient id="linear-gradient" x1="30.08" y1="66.48" x2="36.45" y2="66.48" gradientUnits="userSpaceOnUse"><stop offset="0" stop-color="#4a4dff"/><stop offset="0.2" stop-color="#565aff"/><stop offset="1" stop-color="#8389ff"/></linearGradient><linearGradient id="linear-gradient-2" x1="32.2" y1="74.5" x2="40.71" y2="74.5" xlink:href="#linear-gradient"/><linearGradient id="linear-gradient-3" x1="51" y1="73.3" x2="57.08" y2="73.3" xlink:href="#linear-gradient"/><linearGradient id="linear-gradient-4" x1="41.77" y1="74.35" x2="49.06" y2="74.35" xlink:href="#linear-gradient"/><linearGradient id="linear-gradient-5" x1="20.83" y1="64.93" x2="28.75" y2="64.93" xlink:href="#linear-gradient"/><linearGradient id="linear-gradient-6" x1="56.38" y1="71.97" x2="64.29" y2="71.97" xlink:href="#linear-gradient"/><linearGradient id="linear-gradient-7" x1="60.3" y1="38.54" x2="76.47" y2="22.37" gradientUnits="userSpaceOnUse"><stop offset="0" stop-color="#f5bb00"/><stop offset="0.66" stop-color="#fcd865"/><stop offset="1" stop-color="#ffe594"/></linearGradient><linearGradient id="linear-gradient-8" x1="45.93" y1="68.35" x2="66.25" y2="48.02" gradientUnits="userSpaceOnUse"><stop offset="0" stop-color="#8389ff"/><stop offset="0.82" stop-color="#b2b8ff"/><stop offset="0.97" stop-color="#bbc1ff"/><stop offset="1" stop-color="#bdc3ff"/></linearGradient></defs><path class="cls-1" d="M31.29,71.11a1.2,1.2,0,0,1-.6-.16,1.21,1.21,0,0,1-.45-1.66l3.95-6.83a1.21,1.21,0,1,1,2.1,1.21l-3.95,6.84A1.2,1.2,0,0,1,31.29,71.11Z"/><path class="cls-2" d="M33.42,81a1.21,1.21,0,0,1-1.05-1.82l6.07-10.52a1.21,1.21,0,1,1,2.1,1.21L34.47,80.37A1.22,1.22,0,0,1,33.42,81Z"/><path class="cls-3" d="M52.22,77.67a1.21,1.21,0,0,1-1-1.82l3.64-6.31a1.21,1.21,0,1,1,2.1,1.21l-3.64,6.31A1.2,1.2,0,0,1,52.22,77.67Z"/><path class="cls-4" d="M43,79.78a1.23,1.23,0,0,1-1-1.83l4.86-8.41a1.21,1.21,0,1,1,2.1,1.21L44,79.17A1.23,1.23,0,0,1,43,79.78Z"/><path class="cls-5" d="M28.14,62.05a1.22,1.22,0,0,0-1.66.45l-1.39,2.4h0l-.72,1.26a1.22,1.22,0,0,0,.45,1.66,1.2,1.2,0,0,0,.6.16,1.23,1.23,0,0,0,1.06-.61l1.87-3.25h0l.23-.41A1.21,1.21,0,0,0,28.14,62.05Z"/><path class="cls-6" d="M63.68,69.09a1.22,1.22,0,0,0-1.66.45l-1.38,2.4h0l-.72,1.26A1.21,1.21,0,1,0,62,74.41l1.88-3.25h0l.24-.41A1.22,1.22,0,0,0,63.68,69.09Z"/><circle class="cls-7" cx="68.38" cy="30.45" r="11.43"/><path class="cls-8" d="M66.19,58.79a10.67,10.67,0,0,0,0-21.33h-.11A17,17,0,0,0,33.64,32.4h-.26a13.2,13.2,0,0,0,0,26.4"/><path class="cls-9" d="M67.4,65.79a6.7,6.7,0,1,0,0-13.39h-.06A10.69,10.69,0,0,0,47,49.22H46.8a8.29,8.29,0,0,0,0,16.57"/></svg>