<svg id="Layer_1" data-name="Layer 1" xmlns="http://www.w3.org/2000/svg" xmlns:xlink="http://www.w3.org/1999/xlink" viewBox="0 0 100 100"><defs><style>.cls-1{fill:url(#linear-gradient);}.cls-2{fill:url(#linear-gradient-2);}.cls-3{fill:url(#linear-gradient-3);}.cls-4{fill:url(#linear-gradient-4);}.cls-5{fill:url(#linear-gradient-5);}.cls-6{fill:url(#linear-gradient-6);}.cls-7{fill:url(#linear-gradient-7);}.cls-8{fill:url(#linear-gradient-8);}.cls-9{fill:#ebe7fb;}.cls-10{fill:url(#linear-gradient-9);}.cls-11{fill:url(#linear-gradient-10);}</style><linearGradient id="linear-gradient" x1="28.12" y1="66.93" x2="34.5" y2="66.93" gradientUnits="userSpaceOnUse"><stop offset="0" stop-color="#4a4dff"/><stop offset="0.2" stop-color="#565aff"/><stop offset="1" stop-color="#8389ff"/></linearGradient><linearGradient id="linear-gradient-2" x1="30.25" y1="74.95" x2="38.75" y2="74.95" xlink:href="#linear-gradient"/><linearGradient id="linear-gradient-3" x1="49.05" y1="73.75" x2="55.12" y2="73.75" xlink:href="#linear-gradient"/><linearGradient id="linear-gradient-4" x1="39.81" y1="74.8" x2="47.1" y2="74.8" xlink:href="#linear-gradient"/><linearGradient id="linear-gradient-5" x1="18.87" y1="65.38" x2="26.79" y2="65.38" xlink:href="#linear-gradient"/><linearGradient id="linear-gradient-6" x1="54.42" y1="72.42" x2="62.33" y2="72.42" xlink:href="#linear-gradient"/><linearGradient id="linear-gradient-7" x1="61.43" y1="38.56" x2="74.22" y2="25.77" xlink:href="#linear-gradient"/><linearGradient id="linear-gradient-8" x1="18.58" y1="41.79" x2="75.25" y2="41.79" gradientUnits="userSpaceOnUse"><stop offset="0" stop-color="#8389ff"/><stop offset="0.82" stop-color="#b2b8ff"/><stop offset="0.97" stop-color="#bbc1ff"/><stop offset="1" stop-color="#bdc3ff"/></linearGradient><linearGradient id="linear-gradient-9" x1="26.86" y1="26.88" x2="30.53" y2="23.21" gradientUnits="userSpaceOnUse"><stop offset="0" stop-color="#f5bb00"/><stop offset="0.66" stop-color="#fcd865"/><stop offset="1" stop-color="#ffe594"/></linearGradient><linearGradient id="linear-gradient-10" x1="73.12" y1="26.19" x2="76.09" y2="23.22" xlink:href="#linear-gradient-9"/></defs><path class="cls-1" d="M29.33,71.56a1.2,1.2,0,0,1-.6-.16,1.22,1.22,0,0,1-.45-1.66l3.95-6.84a1.21,1.21,0,0,1,2.1,1.22L30.39,71A1.23,1.23,0,0,1,29.33,71.56Z"/><path class="cls-2" d="M31.46,81.43a1.22,1.22,0,0,1-1.05-1.83l6.07-10.52a1.22,1.22,0,0,1,2.11,1.22L32.51,80.82A1.2,1.2,0,0,1,31.46,81.43Z"/><path class="cls-3" d="M50.26,78.12a1.24,1.24,0,0,1-.61-.16,1.21,1.21,0,0,1-.44-1.66L52.85,70A1.22,1.22,0,0,1,55,71.2l-3.65,6.31A1.2,1.2,0,0,1,50.26,78.12Z"/><path class="cls-4" d="M41,80.22A1.21,1.21,0,0,1,40,78.4L44.83,70a1.22,1.22,0,0,1,2.11,1.22l-4.86,8.41A1.22,1.22,0,0,1,41,80.22Z"/><path class="cls-5" d="M26.18,62.5a1.21,1.21,0,0,0-1.66.44l-1.39,2.41h0l-.73,1.25a1.22,1.22,0,1,0,2.11,1.22l1.87-3.25h0l.24-.41A1.22,1.22,0,0,0,26.18,62.5Z"/><path class="cls-6" d="M61.73,69.54a1.21,1.21,0,0,0-1.66.44l-1.39,2.41h0L58,73.64a1.21,1.21,0,0,0,.44,1.66,1.25,1.25,0,0,0,.61.17,1.2,1.2,0,0,0,1.05-.61l1.88-3.25h0l.23-.41A1.21,1.21,0,0,0,61.73,69.54Z"/><path class="cls-7" d="M69.89,42.07A12,12,0,0,1,66.58,18.6a.63.63,0,0,1,.78.77A10.71,10.71,0,0,0,80.62,32.63a.63.63,0,0,1,.77.78A12,12,0,0,1,69.89,42.07Z"/><path class="cls-8" d="M64.59,60a10.67,10.67,0,0,0,0-21.33h-.11A17,17,0,0,0,32,33.62h-.25a13.2,13.2,0,0,0,0,26.4"/><path class="cls-9" d="M65.8,67a6.7,6.7,0,1,0,0-13.39h-.07a10.69,10.69,0,0,0-20.37-3.18H45.2A8.29,8.29,0,0,0,45.2,67"/><path class="cls-10" d="M29.19,27.86c-.27,1-.72,1-1,0a3.68,3.68,0,0,0-2.33-2.32c-1-.27-1-.72,0-1a3.7,3.7,0,0,0,2.33-2.33c.27-1,.72-1,1,0a3.68,3.68,0,0,0,2.33,2.33c1,.27,1,.72,0,1A3.66,3.66,0,0,0,29.19,27.86Z"/><path class="cls-11" d="M75,27c-.22.81-.58.81-.8,0a3,3,0,0,0-1.89-1.88c-.81-.22-.81-.58,0-.81a3,3,0,0,0,1.89-1.88c.22-.81.58-.81.8,0a3,3,0,0,0,1.88,1.88c.82.23.82.59,0,.81A3,3,0,0,0,75,27Z"/></svg>