<svg id="Layer_1" data-name="Layer 1" xmlns="http://www.w3.org/2000/svg" xmlns:xlink="http://www.w3.org/1999/xlink" viewBox="0 0 100 100"><defs><style>.cls-1{fill:url(#linear-gradient);}.cls-2{fill:#ebe7fb;}.cls-3{fill:url(#linear-gradient-2);}.cls-4{fill:url(#linear-gradient-3);}.cls-5{fill:url(#linear-gradient-4);}.cls-6{fill:url(#linear-gradient-5);}.cls-7{fill:url(#linear-gradient-6);}</style><linearGradient id="linear-gradient" x1="21.67" y1="38.6" x2="78.33" y2="38.6" gradientUnits="userSpaceOnUse"><stop offset="0" stop-color="#8389ff"/><stop offset="0.82" stop-color="#b2b8ff"/><stop offset="0.97" stop-color="#bbc1ff"/><stop offset="1" stop-color="#bdc3ff"/></linearGradient><linearGradient id="linear-gradient-2" x1="32.99" y1="64.47" x2="38.68" y2="64.47" gradientUnits="userSpaceOnUse"><stop offset="0" stop-color="#4a4dff"/><stop offset="0.2" stop-color="#565aff"/><stop offset="1" stop-color="#8389ff"/></linearGradient><linearGradient id="linear-gradient-3" x1="36.2" y1="71.63" x2="43.8" y2="71.63" xlink:href="#linear-gradient-2"/><linearGradient id="linear-gradient-4" x1="22.86" y1="63.09" x2="29.93" y2="63.09" xlink:href="#linear-gradient-2"/><linearGradient id="linear-gradient-5" x1="42.71" y1="74.35" x2="49.78" y2="74.35" xlink:href="#linear-gradient-2"/><linearGradient id="linear-gradient-6" x1="47.45" y1="76.08" x2="63.17" y2="60.36" gradientUnits="userSpaceOnUse"><stop offset="0" stop-color="#f5bb00"/><stop offset="0.66" stop-color="#fcd865"/><stop offset="1" stop-color="#ffe594"/></linearGradient></defs><path class="cls-1" d="M67.67,56.82a10.67,10.67,0,0,0,0-21.33h-.11a17,17,0,0,0-32.44-5.07h-.26a13.2,13.2,0,0,0,0,26.4"/><path class="cls-2" d="M68.89,63.82a6.7,6.7,0,0,0,0-13.39h-.07a10.69,10.69,0,0,0-20.37-3.18h-.16a8.29,8.29,0,1,0,0,16.58"/><path class="cls-3" d="M34.07,68.6a1.06,1.06,0,0,1-.54-.14A1.08,1.08,0,0,1,33.14,67l3.52-6.11A1.09,1.09,0,0,1,38.54,62L35,68.06A1.07,1.07,0,0,1,34.07,68.6Z"/><path class="cls-4" d="M37.29,77.41a1.07,1.07,0,0,1-.94-1.62l5.42-9.4a1.08,1.08,0,0,1,1.48-.4,1.09,1.09,0,0,1,.4,1.49l-5.42,9.39A1.08,1.08,0,0,1,37.29,77.41Z"/><path class="cls-5" d="M29.38,60.51a1.08,1.08,0,0,0-1.48.4l-1.24,2.15h0L26,64.18a1.08,1.08,0,1,0,1.88,1.08l1.68-2.9h0l.21-.37A1.08,1.08,0,0,0,29.38,60.51Z"/><path class="cls-6" d="M49.24,71.78a1.09,1.09,0,0,0-1.49.39l-1.24,2.15h0l-.65,1.12a1.09,1.09,0,0,0,.94,1.63,1.07,1.07,0,0,0,.94-.54l1.68-2.91h0l.21-.36A1.09,1.09,0,0,0,49.24,71.78Z"/><path class="cls-7" d="M57.11,58.06a4.71,4.71,0,0,0-3.68,2.12l-4.31,7.47c-.67,1.17-.13,2,1.22,1.94l3.52-.25c1.35-.1,1.92.79,1.28,2l-3.92,7.21c-.64,1.19-.32,1.46.73.6L66.11,67.47c1-.86.79-1.5-.56-1.43l-5.41.28c-1.35.06-1.9-.84-1.22-2l2.38-4.12c.67-1.17.12-2.13-1.23-2.13Z"/></svg>