<svg id="Layer_1" data-name="Layer 1" xmlns="http://www.w3.org/2000/svg" xmlns:xlink="http://www.w3.org/1999/xlink" viewBox="0 0 100 100"><defs><style>.cls-1{fill:#ebe7fb;}.cls-2{fill:url(#linear-gradient);}.cls-3{fill:url(#linear-gradient-2);}</style><linearGradient id="linear-gradient" x1="47.41" y1="68.01" x2="67.74" y2="47.69" gradientUnits="userSpaceOnUse"><stop offset="0" stop-color="#8389ff"/><stop offset="0.82" stop-color="#b2b8ff"/><stop offset="0.97" stop-color="#bbc1ff"/><stop offset="1" stop-color="#bdc3ff"/></linearGradient><linearGradient id="linear-gradient-2" x1="23.82" y1="70.18" x2="66.75" y2="70.18" xlink:href="#linear-gradient"/></defs><path class="cls-1" d="M67.67,58.45a10.66,10.66,0,0,0,0-21.32h-.11a17,17,0,0,0-32.44-5.07h-.26a13.2,13.2,0,0,0,0,26.39"/><path class="cls-2" d="M68.89,65.45a6.7,6.7,0,0,0,0-13.39h-.07a10.69,10.69,0,0,0-20.37-3.19h-.16a8.29,8.29,0,1,0,0,16.57"/><path class="cls-3" d="M30.91,64a1.58,1.58,0,1,1-1.57-1.57A1.57,1.57,0,0,1,30.91,64Zm6.31-1.57A1.58,1.58,0,1,0,38.79,64,1.57,1.57,0,0,0,37.22,62.38ZM57.29,68.9a1.58,1.58,0,1,0,1.58,1.58A1.57,1.57,0,0,0,57.29,68.9Zm7.88,0a1.58,1.58,0,1,0,1.58,1.58A1.57,1.57,0,0,0,65.17,68.9Zm-39.77,0a1.58,1.58,0,1,0,0,3.15,1.58,1.58,0,0,0,0-3.15Zm7.88,0a1.58,1.58,0,1,0,0,3.15,1.58,1.58,0,0,0,0-3.15Zm7.88,0a1.58,1.58,0,1,0,0,3.15,1.58,1.58,0,0,0,0-3.15Zm7.88,0a1.58,1.58,0,1,0,0,3.15,1.58,1.58,0,0,0,0-3.15Zm12,5.93a1.58,1.58,0,1,0,1.57,1.58A1.58,1.58,0,0,0,61.05,74.83Zm-31.9,0a1.58,1.58,0,1,0,0,3.15,1.58,1.58,0,0,0,0-3.15Zm7.88,0A1.58,1.58,0,1,0,37,78a1.58,1.58,0,0,0,0-3.15Zm7.88,0a1.58,1.58,0,1,0,0,3.15,1.58,1.58,0,0,0,0-3.15Zm7.88,0a1.58,1.58,0,1,0,0,3.15,1.58,1.58,0,0,0,0-3.15Z"/></svg>