<svg id="Layer_1" data-name="Layer 1" xmlns="http://www.w3.org/2000/svg" xmlns:xlink="http://www.w3.org/1999/xlink" viewBox="0 0 100 100"><defs><style>.cls-1{fill:url(#linear-gradient);}</style><linearGradient id="linear-gradient" x1="-26.06" y1="50" x2="81.14" y2="50" gradientUnits="userSpaceOnUse"><stop offset="0" stop-color="#4a4dff"/><stop offset="0.2" stop-color="#565aff"/><stop offset="1" stop-color="#8389ff"/></linearGradient></defs><path class="cls-1" d="M62,30.6A2.08,2.08,0,0,1,60,32.68H40.05a2.08,2.08,0,1,1,0-4.15H60A2.08,2.08,0,0,1,62,30.6Zm5.79,5.68H37.12a1.65,1.65,0,0,0-.32,0,1.86,1.86,0,0,0-.33,0H25.1a2.08,2.08,0,0,0,0,4.16H36.47a1.84,1.84,0,0,0,.33,0,1.66,1.66,0,0,0,.32,0h30.7a2.08,2.08,0,1,0,0-4.16ZM79.06,44H63.53l-.33,0a3.16,3.16,0,0,0-.32,0H32.18a2.08,2.08,0,1,0,0,4.16h30.7a3.16,3.16,0,0,0,.32,0l.33,0H79.06a2.08,2.08,0,0,0,0-4.16ZM66.44,51.8H37.12a3.16,3.16,0,0,0-.32,0l-.33,0H20.94a2.08,2.08,0,1,0,0,4.16H36.47l.33,0a3.16,3.16,0,0,0,.32,0H66.44a2.08,2.08,0,0,0,0-4.16Zm4,7.76H32.18a2.08,2.08,0,1,0,0,4.16H70.39a2.08,2.08,0,0,0,0-4.16ZM61.3,67.32H38.7a2.08,2.08,0,1,0,0,4.15H61.3a2.08,2.08,0,1,0,0-4.15Z"/></svg>